<svg width="100" height="100" xmlns="http://www.w3.org/2000/svg">
  <!-- Background -->
  <rect width="100" height="100" fill="#1a1a2e"/>
  
  <!-- Sky -->
  <rect width="100" height="80" fill="#87ceeb"/>
  
  <!-- Ground -->
  <rect y="80" width="100" height="20" fill="#8b4513"/>
  <rect y="80" width="100" height="5" fill="#00aa00"/>
  
  <!-- Platforms -->
  <rect x="10" y="60" width="30" height="5" fill="#8b4513"/>
  <rect x="60" y="40" width="30" height="5" fill="#8b4513"/>
  
  <!-- Character -->
  <rect x="20" y="50" width="10" height="10" fill="#ff0000"/>
  <rect x="20" y="45" width="10" height="5" fill="#ffcc99"/>
  <rect x="22" y="47" width="2" height="2" fill="#000000"/>
  <rect x="26" y="47" width="2" height="2" fill="#000000"/>
  
  <!-- Coins -->
  <circle cx="70" cy="30" r="5" fill="#ffff00"/>
  <circle cx="85" cy="30" r="5" fill="#ffff00"/>
  
  <!-- Enemy -->
  <rect x="75" y="70" width="10" height="10" fill="#00aa00"/>
  <rect x="77" y="67" width="2" height="3" fill="#00aa00"/>
  <rect x="81" y="67" width="2" height="3" fill="#00aa00"/>
  <rect x="77" y="72" width="2" height="2" fill="#ff0000"/>
  <rect x="81" y="72" width="2" height="2" fill="#ff0000"/>
</svg>