<svg width="100" height="100" xmlns="http://www.w3.org/2000/svg">
  <!-- Background -->
  <rect width="100" height="100" fill="#1a1a2e"/>
  
  <!-- Invaders Row 1 -->
  <rect x="20" y="20" width="10" height="10" fill="#00ff00"/>
  <rect x="40" y="20" width="10" height="10" fill="#00ff00"/>
  <rect x="60" y="20" width="10" height="10" fill="#00ff00"/>
  <rect x="80" y="20" width="10" height="10" fill="#00ff00"/>
  
  <!-- Invaders Row 2 -->
  <rect x="30" y="35" width="10" height="10" fill="#ff00ff"/>
  <rect x="50" y="35" width="10" height="10" fill="#ff00ff"/>
  <rect x="70" y="35" width="10" height="10" fill="#ff00ff"/>
  
  <!-- Invaders Row 3 -->
  <rect x="20" y="50" width="10" height="10" fill="#ffff00"/>
  <rect x="40" y="50" width="10" height="10" fill="#ffff00"/>
  <rect x="60" y="50" width="10" height="10" fill="#ffff00"/>
  <rect x="80" y="50" width="10" height="10" fill="#ffff00"/>
  
  <!-- Player Ship -->
  <rect x="45" y="80" width="10" height="5" fill="#ffffff"/>
  <rect x="40" y="85" width="20" height="5" fill="#ffffff"/>
  
  <!-- Laser -->
  <rect x="49" y="65" width="2" height="15" fill="#ff0000"/>
</svg>