<svg width="500" height="500" xmlns="http://www.w3.org/2000/svg">
  <style>
    .star {
      animation: twinkle 3s infinite alternate;
    }
    @keyframes twinkle {
      0% { opacity: 0.3; }
      100% { opacity: 1; }
    }
  </style>
  
  <!-- Small stars -->
  <g fill="white">
    <circle class="star" cx="50" cy="50" r="1" style="animation-delay: 0s;"/>
    <circle class="star" cx="120" cy="30" r="1" style="animation-delay: 0.5s;"/>
    <circle class="star" cx="200" cy="70" r="1" style="animation-delay: 1s;"/>
    <circle class="star" cx="280" cy="40" r="1" style="animation-delay: 1.5s;"/>
    <circle class="star" cx="350" cy="90" r="1" style="animation-delay: 2s;"/>
    <circle class="star" cx="420" cy="20" r="1" style="animation-delay: 2.5s;"/>
    <circle class="star" cx="70" cy="120" r="1" style="animation-delay: 0.2s;"/>
    <circle class="star" cx="150" cy="150" r="1" style="animation-delay: 0.7s;"/>
    <circle class="star" cx="230" cy="130" r="1" style="animation-delay: 1.2s;"/>
    <circle class="star" cx="310" cy="170" r="1" style="animation-delay: 1.7s;"/>
    <circle class="star" cx="380" cy="140" r="1" style="animation-delay: 2.2s;"/>
    <circle class="star" cx="450" cy="180" r="1" style="animation-delay: 2.7s;"/>
    <circle class="star" cx="30" cy="210" r="1" style="animation-delay: 0.3s;"/>
    <circle class="star" cx="100" cy="240" r="1" style="animation-delay: 0.8s;"/>
    <circle class="star" cx="180" cy="220" r="1" style="animation-delay: 1.3s;"/>
    <circle class="star" cx="260" cy="260" r="1" style="animation-delay: 1.8s;"/>
    <circle class="star" cx="330" cy="230" r="1" style="animation-delay: 2.3s;"/>
    <circle class="star" cx="400" cy="270" r="1" style="animation-delay: 2.8s;"/>
    <circle class="star" cx="60" cy="300" r="1" style="animation-delay: 0.4s;"/>
    <circle class="star" cx="140" cy="330" r="1" style="animation-delay: 0.9s;"/>
    <circle class="star" cx="220" cy="310" r="1" style="animation-delay: 1.4s;"/>
    <circle class="star" cx="300" cy="350" r="1" style="animation-delay: 1.9s;"/>
    <circle class="star" cx="370" cy="320" r="1" style="animation-delay: 2.4s;"/>
    <circle class="star" cx="440" cy="360" r="1" style="animation-delay: 2.9s;"/>
    <circle class="star" cx="20" cy="390" r="1" style="animation-delay: 0.1s;"/>
    <circle class="star" cx="90" cy="420" r="1" style="animation-delay: 0.6s;"/>
    <circle class="star" cx="170" cy="400" r="1" style="animation-delay: 1.1s;"/>
    <circle class="star" cx="250" cy="440" r="1" style="animation-delay: 1.6s;"/>
    <circle class="star" cx="320" cy="410" r="1" style="animation-delay: 2.1s;"/>
    <circle class="star" cx="390" cy="450" r="1" style="animation-delay: 2.6s;"/>
    <circle class="star" cx="460" cy="430" r="1" style="animation-delay: 3.1s;"/>
  </g>
  
  <!-- Medium stars -->
  <g fill="white">
    <circle class="star" cx="80" cy="80" r="1.5" style="animation-delay: 0.3s;"/>
    <circle class="star" cx="160" cy="60" r="1.5" style="animation-delay: 0.8s;"/>
    <circle class="star" cx="240" cy="100" r="1.5" style="animation-delay: 1.3s;"/>
    <circle class="star" cx="320" cy="70" r="1.5" style="animation-delay: 1.8s;"/>
    <circle class="star" cx="400" cy="110" r="1.5" style="animation-delay: 2.3s;"/>
    <circle class="star" cx="40" cy="150" r="1.5" style="animation-delay: 0.4s;"/>
    <circle class="star" cx="120" cy="180" r="1.5" style="animation-delay: 0.9s;"/>
    <circle class="star" cx="200" cy="160" r="1.5" style="animation-delay: 1.4s;"/>
    <circle class="star" cx="280" cy="200" r="1.5" style="animation-delay: 1.9s;"/>
    <circle class="star" cx="360" cy="170" r="1.5" style="animation-delay: 2.4s;"/>
    <circle class="star" cx="440" cy="210" r="1.5" style="animation-delay: 2.9s;"/>
    <circle class="star" cx="70" cy="240" r="1.5" style="animation-delay: 0.5s;"/>
    <circle class="star" cx="150" cy="270" r="1.5" style="animation-delay: 1.0s;"/>
    <circle class="star" cx="230" cy="250" r="1.5" style="animation-delay: 1.5s;"/>
    <circle class="star" cx="310" cy="290" r="1.5" style="animation-delay: 2.0s;"/>
    <circle class="star" cx="390" cy="260" r="1.5" style="animation-delay: 2.5s;"/>
    <circle class="star" cx="30" cy="330" r="1.5" style="animation-delay: 0.6s;"/>
    <circle class="star" cx="110" cy="360" r="1.5" style="animation-delay: 1.1s;"/>
    <circle class="star" cx="190" cy="340" r="1.5" style="animation-delay: 1.6s;"/>
    <circle class="star" cx="270" cy="380" r="1.5" style="animation-delay: 2.1s;"/>
    <circle class="star" cx="350" cy="350" r="1.5" style="animation-delay: 2.6s;"/>
    <circle class="star" cx="430" cy="390" r="1.5" style="animation-delay: 3.1s;"/>
  </g>
  
  <!-- Large stars -->
  <g fill="white">
    <circle class="star" cx="50" cy="120" r="2" style="animation-delay: 0.2s;"/>
    <circle class="star" cx="130" cy="90" r="2" style="animation-delay: 0.7s;"/>
    <circle class="star" cx="210" cy="130" r="2" style="animation-delay: 1.2s;"/>
    <circle class="star" cx="290" cy="100" r="2" style="animation-delay: 1.7s;"/>
    <circle class="star" cx="370" cy="140" r="2" style="animation-delay: 2.2s;"/>
    <circle class="star" cx="450" cy="110" r="2" style="animation-delay: 2.7s;"/>
    <circle class="star" cx="90" cy="180" r="2" style="animation-delay: 0.3s;"/>
    <circle class="star" cx="170" cy="210" r="2" style="animation-delay: 0.8s;"/>
    <circle class="star" cx="250" cy="190" r="2" style="animation-delay: 1.3s;"/>
    <circle class="star" cx="330" cy="230" r="2" style="animation-delay: 1.8s;"/>
    <circle class="star" cx="410" cy="200" r="2" style="animation-delay: 2.3s;"/>
    <circle class="star" cx="60" cy="270" r="2" style="animation-delay: 0.4s;"/>
    <circle class="star" cx="140" cy="300" r="2" style="animation-delay: 0.9s;"/>
    <circle class="star" cx="220" cy="280" r="2" style="animation-delay: 1.4s;"/>
    <circle class="star" cx="300" cy="320" r="2" style="animation-delay: 1.9s;"/>
    <circle class="star" cx="380" cy="290" r="2" style="animation-delay: 2.4s;"/>
    <circle class="star" cx="460" cy="330" r="2" style="animation-delay: 2.9s;"/>
    <circle class="star" cx="100" cy="360" r="2" style="animation-delay: 0.5s;"/>
    <circle class="star" cx="180" cy="390" r="2" style="animation-delay: 1.0s;"/>
    <circle class="star" cx="260" cy="370" r="2" style="animation-delay: 1.5s;"/>
    <circle class="star" cx="340" cy="410" r="2" style="animation-delay: 2.0s;"/>
    <circle class="star" cx="420" cy="380" r="2" style="animation-delay: 2.5s;"/>
  </g>
</svg>